#tb 0: 1/25
0,          0,          0,        1,    46080, 0x6077e5de
0,          1,          1,        1,    46080, 0x853e14b8
0,          2,          2,        1,    46080, 0x801e52ac
0,          3,          3,        1,    46080, 0xa09d3bff
0,          4,          4,        1,    46080, 0x479f342b
0,          5,          5,        1,    46080, 0x092cd39d
0,          6,          6,        1,    46080, 0xf52aaaa3
0,          7,          7,        1,    46080, 0x264270bc
0,          8,          8,        1,    46080, 0xc466b8ee
0,          9,          9,        1,    46080, 0x0e7a743f
0,         10,         10,        1,    46080, 0x9908753c
0,         11,         11,        1,    46080, 0x5a05f0ed
0,         12,         12,        1,    46080, 0x74f8c3be
0,         13,         13,        1,    46080, 0xfcaa66c8
0,         14,         14,        1,    46080, 0xcc563402
0,         15,         15,        1,    46080, 0x34597cae
0,         16,         16,        1,    46080, 0x89bb2330
0,         17,         17,        1,    46080, 0xdeffc182
0,         18,         18,        1,    46080, 0x1f2996de
0,         19,         19,        1,    46080, 0x0a47beb1
0,         20,         20,        1,    46080, 0xa5508fc0
0,         21,         21,        1,    46080, 0x76bdc171
0,         22,         22,        1,    46080, 0xc0b6f1aa
0,         23,         23,        1,    46080, 0x58f72ad4
0,         24,         24,        1,    46080, 0xc118f127
0,         25,         25,        1,    46080, 0xa4ff3baf
0,         26,         26,        1,    46080, 0x1f6b2f8e
0,         27,         27,        1,    46080, 0xcff13d20
0,         28,         28,        1,    46080, 0x4fff3b83
0,         29,         29,        1,    46080, 0x88bd37af
0,         30,         30,        1,    46080, 0x60134b43
0,         31,         31,        1,    46080, 0xc8763e80
0,         32,         32,        1,    46080, 0xe6441fad
0,         33,         33,        1,    46080, 0xe35ca906
0,         34,         34,        1,    46080, 0x1da390c9
0,         35,         35,        1,    46080, 0x199202e9
0,         36,         36,        1,    46080, 0xb0424ed1
0,         37,         37,        1,    46080, 0xff25c9d5
0,         38,         38,        1,    46080, 0xb8b40340
0,         39,         39,        1,    46080, 0xad84d4b3
0,         40,         40,        1,    46080, 0xdc83404f
0,         41,         41,        1,    46080, 0x38718f44
0,         42,         42,        1,    46080, 0x4f4871a6
0,         43,         43,        1,    46080, 0x09b4af55
0,         44,         44,        1,    46080, 0x11c263de
